  0
SECTION
  2
HEADER
  9
$ACADVER
  1
AC1009
  9
$DWGCODEPAGE
  3
ansi_1252
  9
$INSBASE
 10
0.0
 20
0.0
 30
0.0
  9
$EXTMIN
 10
21.95
 20
-155.3
 30
0.0
  9
$EXTMAX
 10
179.55
 20
-62.95
 30
0.0
  9
$LIMMIN
 10
0.0
 20
0.0
  9
$LIMMAX
 10
12.0
 20
9.0
  9
$ORTHOMODE
 70
     0
  9
$REGENMODE
 70
     1
  9
$FILLMODE
 70
     1
  9
$QTEXTMODE
 70
     0
  9
$MIRRTEXT
 70
     1
  9
$DRAGMODE
 70
     2
  9
$LTSCALE
 40
1.0
  9
$OSMODE
 70
    37
  9
$ATTMODE
 70
     1
  9
$TEXTSIZE
 40
0.2
  9
$TRACEWID
 40
0.05
  9
$TEXTSTYLE
  7
STANDARD
  9
$CLAYER
  8
0
  9
$CELTYPE
  6
BYLAYER
  9
$CECOLOR
 62
   256
  9
$DIMSCALE
 40
1.0
  9
$DIMASZ
 40
0.18
  9
$DIMEXO
 40
0.0625
  9
$DIMDLI
 40
0.38
  9
$DIMRND
 40
0.0
  9
$DIMDLE
 40
0.0
  9
$DIMEXE
 40
0.18
  9
$DIMTP
 40
0.0
  9
$DIMTM
 40
0.0
  9
$DIMTXT
 40
0.18
  9
$DIMCEN
 40
0.09
  9
$DIMTSZ
 40
0.0
  9
$DIMTOL
 70
     0
  9
$DIMLIM
 70
     0
  9
$DIMTIH
 70
     1
  9
$DIMTOH
 70
     1
  9
$DIMSE1
 70
     0
  9
$DIMSE2
 70
     0
  9
$DIMTAD
 70
     0
  9
$DIMZIN
 70
     0
  9
$DIMBLK
  1

  9
$DIMASO
 70
     1
  9
$DIMSHO
 70
     1
  9
$DIMPOST
  1

  9
$DIMAPOST
  1

  9
$DIMALT
 70
     0
  9
$DIMALTD
 70
     2
  9
$DIMALTF
 40
25.4
  9
$DIMLFAC
 40
1.0
  9
$DIMTOFL
 70
     0
  9
$DIMTVP
 40
0.0
  9
$DIMTIX
 70
     0
  9
$DIMSOXD
 70
     0
  9
$DIMSAH
 70
     0
  9
$DIMBLK1
  1

  9
$DIMBLK2
  1

  9
$DIMSTYLE
  2
STANDARD
  9
$DIMCLRD
 70
     0
  9
$DIMCLRE
 70
     0
  9
$DIMCLRT
 70
     0
  9
$DIMTFAC
 40
1.0
  9
$DIMGAP
 40
0.09
  9
$LUNITS
 70
     2
  9
$LUPREC
 70
     4
  9
$SKETCHINC
 40
0.1
  9
$FILLETRAD
 40
0.0
  9
$AUNITS
 70
     0
  9
$AUPREC
 70
     0
  9
$MENU
  1
.
  9
$ELEVATION
 40
0.0
  9
$PELEVATION
 40
0.0
  9
$THICKNESS
 40
0.0
  9
$LIMCHECK
 70
     0
  9
$CHAMFERA
 40
0.0
  9
$CHAMFERB
 40
0.0
  9
$SKPOLY
 70
     0
  9
$TDCREATE
 40
2460349.830263715
  9
$TDUPDATE
 40
2460349.83026397
  9
$TDINDWG
 40
0.0000000116
  9
$TDUSRTIMER
 40
0.0000000116
  9
$USRTIMER
 70
     1
  9
$ANGBASE
 50
0.0
  9
$ANGDIR
 70
     1
  9
$PDMODE
 70
     0
  9
$PDSIZE
 40
0.0
  9
$PLINEWID
 40
0.0
  9
$COORDS
 70
     1
  9
$SPLFRAME
 70
     0
  9
$SPLINETYPE
 70
     6
  9
$SPLINESEGS
 70
     8
  9
$ATTDIA
 70
     0
  9
$ATTREQ
 70
     1
  9
$HANDLING
 70
     1
  9
$HANDSEED
  5
3F2E
  9
$SURFTAB1
 70
     6
  9
$SURFTAB2
 70
     6
  9
$SURFTYPE
 70
     6
  9
$SURFU
 70
     6
  9
$SURFV
 70
     6
  9
$UCSNAME
  2

  9
$UCSORG
 10
0.0
 20
0.0
 30
0.0
  9
$UCSXDIR
 10
1.0
 20
0.0
 30
0.0
  9
$UCSYDIR
 10
0.0
 20
1.0
 30
0.0
  9
$PUCSNAME
  2

  9
$PUCSORG
 10
0.0
 20
0.0
 30
0.0
  9
$PUCSXDIR
 10
1.0
 20
0.0
 30
0.0
  9
$PUCSYDIR
 10
0.0
 20
1.0
 30
0.0
  9
$USERI1
 70
     0
  9
$USERI2
 70
     0
  9
$USERI3
 70
     0
  9
$USERI4
 70
     0
  9
$USERI5
 70
     0
  9
$USERR1
 40
0.0
  9
$USERR2
 40
0.0
  9
$USERR3
 40
0.0
  9
$USERR4
 40
0.0
  9
$USERR5
 40
0.0
  9
$WORLDVIEW
 70
     1
  9
$SHADEDGE
 70
     3
  9
$SHADEDIF
 70
    70
  9
$TILEMODE
 70
     1
  9
$MAXACTVP
 70
    64
  9
$PLIMCHECK
 70
     0
  9
$PEXTMIN
 10
1.000000000000000E+20
 20
1.000000000000000E+20
 30
1.000000000000000E+20
  9
$PEXTMAX
 10
-1.000000000000000E+20
 20
-1.000000000000000E+20
 30
-1.000000000000000E+20
  9
$PLIMMIN
 10
-20.0
 20
-7.5
  9
$PLIMMAX
 10
277.0
 20
202.5
  9
$UNITMODE
 70
     0
  9
$VISRETAIN
 70
     1
  9
$PLINEGEN
 70
     0
  9
$PSLTSCALE
 70
     1
  0
ENDSEC
  0
SECTION
  2
TABLES
  0
TABLE
  2
VPORT
 70
     1
  0
VPORT
  2
*ACTIVE
 70
     0
 10
0.0
 20
0.0
 11
1.0
 21
1.0
 12
70.10733081998306
 22
-133.0055748928512
 13
0.0
 23
0.0
 14
0.5
 24
0.5
 15
0.5
 25
0.5
 16
0.0
 26
0.0
 36
1.0
 17
0.0
 27
0.0
 37
0.0
 40
178.6307017711736
 41
1.277220630372493
 42
50.0
 43
0.0
 44
0.0
 50
0.0
 51
0.0
 71
     0
 72
   100
 73
     1
 74
     3
 75
     0
 76
     0
 77
     0
 78
     0
  0
ENDTAB
  0
TABLE
  2
LTYPE
 70
    49
  0
LTYPE
  2
CONTINUOUS
 70
     0
  3
Solid line
 72
    65
 73
     0
 40
0.0
  0
LTYPE
  2
ACAD_ISO04W100
 70
     0
  3
ISO long-dash dot ____ . ____ . ____ . ____ . _
 72
    65
 73
     4
 40
30.0
 49
24.0
 49
-3.0
 49
0.0
 49
-3.0
  0
LTYPE
  2
ACAD_ISO09W100
 70
     0
  3
ISO long-dash double-short-dash ____ __ __ ____
 72
    65
 73
     6
 40
45.0
 49
24.0
 49
-3.0
 49
6.0
 49
-3.0
 49
6.0
 49
-3.0
  0
LTYPE
  2
FENCELINE1
 70
     0
  3
Fenceline circle ----0-----0----0-----0----0-----0--
 72
    65
 73
     4
 40
36.83
 49
6.35
 49
-2.54
 49
-2.54
 49
25.4
  0
LTYPE
  2
ACAD_ISO02W100
 70
     0
  3
ISO dash __ __ __ __ __ __ __ __ __ __ __ __ __
 72
    65
 73
     2
 40
15.0
 49
12.0
 49
-3.0
  0
LTYPE
  2
DOTX2
 70
     0
  3
Dot (2x) .  .  .  .  .  .  .  .  .  .  .  .  .  .
 72
    65
 73
     2
 40
12.7
 49
0.0
 49
-12.7
  0
LTYPE
  2
ACAD_ISO07W100
 70
     0
  3
ISO dot . . . . . . . . . . . . . . . . . . . . 
 72
    65
 73
     2
 40
3.0
 49
0.0
 49
-3.0
  0
LTYPE
  2
DOT
 70
     0
  3
Dot . . . . . . . . . . . . . . . . . . . . . . . .
 72
    65
 73
     2
 40
6.35
 49
0.0
 49
-6.35
  0
LTYPE
  2
DIVIDEX2
 70
     0
  3
Divide (2x) ________  .  .  ________  .  .  _
 72
    65
 73
     6
 40
63.5
 49
25.4
 49
-12.7
 49
0.0
 49
-12.7
 49
0.0
 49
-12.7
  0
LTYPE
  2
ACAD_ISO13W100
 70
     0
  3
ISO double-dash double-dot __ __ . . __ __ . . _
 72
    65
 73
     8
 40
36.0
 49
12.0
 49
-3.0
 49
12.0
 49
-3.0
 49
0.0
 49
-3.0
 49
0.0
 49
-3.0
  0
LTYPE
  2
ACAD_ISO06W100
 70
     0
  3
ISO long-dash triple-dot ____ ... ____ ... ____
 72
    65
 73
     8
 40
36.0
 49
24.0
 49
-3.0
 49
0.0
 49
-3.0
 49
0.0
 49
-3.0
 49
0.0
 49
-3.0
  0
LTYPE
  2
ACAD_ISO05W100
 70
     0
  3
ISO long-dash double-dot ____ .. ____ .. ____ . 
 72
    65
 73
     6
 40
33.0
 49
24.0
 49
-3.0
 49
0.0
 49
-3.0
 49
0.0
 49
-3.0
  0
LTYPE
  2
ZIGZAG
 70
     0
  3
Zig zag /\/\/\/\/\/\/\/\/\/\/\/\/\/\/\/\/\/\/\/\/\/\/\/
 72
    65
 73
     4
 40
20.32254
 49
0.00254
 49
-5.08
 49
-10.16
 49
-5.08
  0
LTYPE
  2
CENTER
 70
     0
  3
Center ____ _ ____ _ ____ _ ____ _ ____ _ ____
 72
    65
 73
     4
 40
50.8
 49
31.75
 49
-6.35
 49
6.35
 49
-6.35
  0
LTYPE
  2
BATTING
 70
     0
  3
Batting SSSSSSSSSSSSSSSSSSSSSSSSSSSSSSSSSSSSSSSSSSSSSSS
 72
    65
 73
     4
 40
10.16254
 49
0.00254
 49
-2.54
 49
-5.08
 49
-2.54
  0
LTYPE
  2
DRAINAGE2
 70
     0
  3
Drainage reversed----<----<----<----
 72
    65
 73
     2
 40
10.16
 49
5.08
 49
5.08
  0
LTYPE
  2
ACAD_ISO14W100
 70
     0
  3
ISO dash triple-dot __ . . . __ . . . __ . . . _
 72
    65
 73
     8
 40
24.0
 49
12.0
 49
-3.0
 49
0.0
 49
-3.0
 49
0.0
 49
-3.0
 49
0.0
 49
-3.0
  0
LTYPE
  2
PHANTOM
 70
     0
  3
Phantom ______  __  __  ______  __  __  ______ 
 72
    65
 73
     6
 40
63.50000000000001
 49
31.75
 49
-6.35
 49
6.35
 49
-6.35
 49
6.35
 49
-6.35
  0
LTYPE
  2
DASHED2
 70
     0
  3
Dashed (.5x) _ _ _ _ _ _ _ _ _ _ _ _ _ _ _ _ _ 
 72
    65
 73
     2
 40
9.524999999999999
 49
6.35
 49
-3.175
  0
LTYPE
  2
ACAD_ISO03W100
 70
     0
  3
ISO dash space __    __    __    __    __    __
 72
    65
 73
     2
 40
30.0
 49
12.0
 49
-18.0
  0
LTYPE
  2
CENTER2
 70
     0
  3
Center (.5x) ___ _ ___ _ ___ _ ___ _ ___ _ ___
 72
    65
 73
     4
 40
28.575
 49
19.05
 49
-3.175
 49
3.175
 49
-3.175
  0
LTYPE
  2
DASHDOT
 70
     0
  3
Dash Dot ____ _ ____ _
 72
    65
 73
     4
 40
2.0
 49
1.25
 49
-0.25
 49
0.25
 49
-0.25
  0
LTYPE
  2
DASHDOT2
 70
     0
  3
Dash dot (.5x) _._._._._._._._._._._._._._._.
 72
    65
 73
     4
 40
12.7
 49
6.35
 49
-3.175
 49
0.0
 49
-3.175
  0
LTYPE
  2
DASHED
 70
     0
  3
Dashed __ __ __ __ __
 72
    65
 73
     2
 40
0.75
 49
0.5
 49
-0.25
  0
LTYPE
  2
ACAD_ISO10W100
 70
     0
  3
ISO dash dot __ . __ . __ . __ . __ . __ . __ . 
 72
    65
 73
     4
 40
18.0
 49
12.0
 49
-3.0
 49
0.0
 49
-3.0
  0
LTYPE
  2
DIVIDE2
 70
     0
  3
Divide (.5x) __..__..__..__..__..__..__..__.._
 72
    65
 73
     6
 40
15.875
 49
6.35
 49
-3.175
 49
0.0
 49
-3.175
 49
0.0
 49
-3.175
  0
LTYPE
  2
HOT_WATER_SUPPLY
 70
     0
  3
Hot water supply ---- HW ---- HW ---- HW ----
 72
    65
 73
     3
 40
22.86
 49
12.7
 49
-5.08
 49
-5.08
  0
LTYPE
  2
ACAD_ISO11W100
 70
     0
  3
ISO double-dash dot __ __ . __ __ . __ __ . __ _
 72
    65
 73
     6
 40
33.0
 49
12.0
 49
-3.0
 49
12.0
 49
-3.0
 49
0.0
 49
-3.0
  0
LTYPE
  2
PHANTOMX2
 70
     0
  3
Phantom (2x) ____________    ____    ____   _
 72
    65
 73
     6
 40
127.0
 49
63.5
 49
-12.7
 49
12.7
 49
-12.7
 49
12.7
 49
-12.7
  0
LTYPE
  2
DRAINAGE
 70
     0
  3
Drainage ---->---->---->----
 72
    65
 73
     2
 40
10.16
 49
5.08
 49
5.08
  0
LTYPE
  2
ACAD_ISO08W100
 70
     0
  3
ISO long-dash short-dash ____ __ ____ __ ____ _
 72
    65
 73
     4
 40
36.0
 49
24.0
 49
-3.0
 49
6.0
 49
-3.0
  0
LTYPE
  2
ACAD_ISO12W100
 70
     0
  3
ISO dash double-dot __ . . __ . . __ . . __ . . 
 72
    65
 73
     6
 40
21.0
 49
12.0
 49
-3.0
 49
0.0
 49
-3.0
 49
0.0
 49
-3.0
  0
LTYPE
  2
HIDDEN
 70
     0
  3
Hidden __ __ __ __ __ __ __ __ __ __ __ __ __ __
 72
    65
 73
     2
 40
9.524999999999999
 49
6.35
 49
-3.175
  0
LTYPE
  2
GAS_LINE
 70
     0
  3
Gas line ----GAS----GAS----GAS----GAS----GAS----GAS--
 72
    65
 73
     3
 40
24.13
 49
12.7
 49
-5.08
 49
-6.35
  0
LTYPE
  2
PHANTOM2
 70
     0
  3
Phantom (.5x) ___ _ _ ___ _ _ ___ _ _ ___ _ _
 72
    65
 73
     6
 40
31.75
 49
15.875
 49
-3.175
 49
3.175
 49
-3.175
 49
3.175
 49
-3.175
  0
LTYPE
  2
DASHDOTX2
 70
     0
  3
Dash dot (2x) ____  .  ____  .  ____  .  ___
 72
    65
 73
     4
 40
50.8
 49
25.4
 49
-12.7
 49
0.0
 49
-12.7
  0
LTYPE
  2
FENCELINE2
 70
     0
  3
Fenceline square ----[]-----[]----[]-----[]----[]---
 72
    65
 73
     4
 40
36.83
 49
6.35
 49
-2.54
 49
-2.54
 49
25.4
  0
LTYPE
  2
DASHEDX2
 70
     0
  3
Dashed (2x) ____  ____  ____  ____  ____  ___
 72
    65
 73
     2
 40
38.09999999999999
 49
25.4
 49
-12.7
  0
LTYPE
  2
HIDDEN2
 70
     0
  3
Hidden (.5x) _ _ _ _ _ _ _ _ _ _ _ _ _ _ _ _ _ 
 72
    65
 73
     2
 40
4.762499999999999
 49
3.175
 49
-1.5875
  0
LTYPE
  2
HIDDENX2
 70
     0
  3
Hidden (2x) ____ ____ ____ ____ ____ ____ ____ 
 72
    65
 73
     2
 40
19.05
 49
12.7
 49
-6.35
  0
LTYPE
  2
DIVIDE
 70
     0
  3
Divide ____ . . ____ . . ____ . . ____ . . ____
 72
    65
 73
     6
 40
31.75
 49
12.7
 49
-6.35
 49
0.0
 49
-6.35
 49
0.0
 49
-6.35
  0
LTYPE
  2
BORDER2
 70
     0
  3
Border (.5x) __.__.__.__.__.__.__.__.__.__.__.
 72
    65
 73
     6
 40
22.225
 49
6.35
 49
-3.175
 49
6.35
 49
-3.175
 49
0.0
 49
-3.175
  0
LTYPE
  2
DOTTED
 70
     0
  3
Dotted .  .  .  .
 72
    65
 73
     2
 40
0.2
 49
0.0
 49
-0.2
  0
LTYPE
  2
DOT2
 70
     0
  3
Dot (.5x) ........................................
 72
    65
 73
     2
 40
3.175
 49
0.0
 49
-3.175
  0
LTYPE
  2
CENTERX2
 70
     0
  3
Center (2x) ________  __  ________  __  _____
 72
    65
 73
     4
 40
101.6
 49
63.5
 49
-12.7
 49
12.7
 49
-12.7
  0
LTYPE
  2
TRACKS
 70
     0
  3
Tracks -|-|-|-|-|-|-|-|-|-|-|-|-|-|-|-|-|-|-|-|-|-|-|-|-
 72
    65
 73
     2
 40
7.62
 49
3.81
 49
3.81
  0
LTYPE
  2
ACAD_ISO15W100
 70
     0
  3
ISO double-dash triple-dot __ __ . . . __ __ . .
 72
    65
 73
    10
 40
39.0
 49
12.0
 49
-3.0
 49
12.0
 49
-3.0
 49
0.0
 49
-3.0
 49
0.0
 49
-3.0
 49
0.0
 49
-3.0
  0
LTYPE
  2
BORDER
 70
     0
  3
Border __ __ . __ __ . __ __ . __ __ . __ __ .
 72
    65
 73
     6
 40
44.45
 49
12.7
 49
-6.35
 49
12.7
 49
-6.35
 49
0.0
 49
-6.35
  0
LTYPE
  2
BORDERX2
 70
     0
  3
Border (2x) ____  ____  .  ____  ____  .  ___
 72
    65
 73
     6
 40
88.89999999999999
 49
25.4
 49
-12.7
 49
25.4
 49
-12.7
 49
0.0
 49
-12.7
  0
ENDTAB
  0
TABLE
  2
LAYER
 70
     2
  0
LAYER
  2
0
 70
     0
 62
     7
  6
CONTINUOUS
  0
LAYER
  2
BLACK
 70
     0
 62
     7
  6
CONTINUOUS
  0
ENDTAB
  0
TABLE
  2
STYLE
 70
     5
  0
STYLE
  2
STANDARD
 70
     0
 40
0.0
 41
1.0
 50
0.0
 71
     0
 42
0.2
  3
txt
  4

  0
STYLE
  2
QCADDIMTEXTSTYLE
 70
     0
 40
0.0
 41
1.0
 50
0.0
 71
     0
 42
0.2
  3

  4

  0
STYLE
  2
TEXTSTYLE0
 70
     0
 40
0.0
 41
1.0
 50
0.0
 71
     0
 42
0.2
  3
ltypeshp.shx
  4

  0
STYLE
  2
TEXTSTYLE1
 70
     0
 40
0.0
 41
1.0
 50
0.0
 71
     0
 42
0.2
  3
qcadshp.shx
  4

  0
STYLE
  2
TEXTSTYLE2
 70
     0
 40
0.0
 41
1.0
 50
0.0
 71
     0
 42
0.2
  3
STANDARD
  4

  0
ENDTAB
  0
TABLE
  2
VIEW
 70
     0
  0
ENDTAB
  0
TABLE
  2
UCS
 70
     0
  0
ENDTAB
  0
TABLE
  2
APPID
 70
     2
  0
APPID
  2
ACAD
 70
     0
  0
APPID
  2
QCAD
 70
     0
  0
ENDTAB
  0
TABLE
  2
DIMSTYLE
 70
     2
  0
DIMSTYLE
  2
STANDARD
 70
     0
  3

  4

  5

  6

  7

 40
1.0
 41
0.18
 42
0.0625
 43
0.38
 44
0.18
 45
0.0
 46
0.0
 47
0.0
 48
0.0
140
0.18
141
0.09
142
0.0
143
25.4
144
1.0
145
0.0
146
1.0
147
0.09
 71
     0
 72
     0
 73
     1
 74
     1
 75
     0
 76
     0
 77
     0
 78
     0
170
     0
171
     2
172
     0
173
     0
174
     0
175
     0
176
     0
177
     0
178
     0
  0
DIMSTYLE
  2
QCADDIMSTYLE
 70
     0
  3

  4

  5

  6

  7

 40
1.0
 41
0.18
 42
0.0625
 43
0.38
 44
0.18
 45
0.0
 46
0.0
 47
0.0
 48
0.0
140
0.18
141
0.09
142
0.0
143
25.4
144
1.0
145
0.0
146
1.0
147
0.09
 71
     0
 72
     0
 73
     1
 74
     1
 75
     0
 76
     0
 77
     0
 78
     0
170
     0
171
     2
172
     0
173
     0
174
     0
175
     0
176
     0
177
     0
178
     0
  0
ENDTAB
  0
ENDSEC
  0
SECTION
  2
BLOCKS
  0
BLOCK
  8
0
  2
$MODEL_SPACE
 70
     0
 10
0.0
 20
0.0
 30
0.0
  3
$MODEL_SPACE
  1

  0
ENDBLK
  5
3E7A
  8
0
  0
BLOCK
 67
     1
  8
0
  2
$PAPER_SPACE
 70
     0
 10
0.0
 20
0.0
 30
0.0
  3
$PAPER_SPACE
  1

  0
ENDBLK
  5
3E76
 67
     1
  8
0
  0
ENDSEC
  0
SECTION
  2
ENTITIES
  0
LINE
  5
3E13
  8
BLACK
  6
CONTINUOUS
 10
25.75
 20
-62.95
 30
0.0
 11
25.563318
 21
-62.95
 31
0.0
  0
LINE
  5
3E14
  8
BLACK
  6
CONTINUOUS
 10
25.563318
 20
-62.95
 30
0.0
 11
25.191752
 21
-62.986596
 31
0.0
  0
LINE
  5
3E15
  8
BLACK
  6
CONTINUOUS
 10
25.191752
 20
-62.986596
 30
0.0
 11
24.825562
 21
-63.059436
 31
0.0
  0
LINE
  5
3E16
  8
BLACK
  6
CONTINUOUS
 10
24.825562
 20
-63.059436
 30
0.0
 11
24.468275
 21
-63.167817
 31
0.0
  0
LINE
  5
3E17
  8
BLACK
  6
CONTINUOUS
 10
24.468275
 20
-63.167817
 30
0.0
 11
24.123331
 21
-63.310698
 31
0.0
  0
LINE
  5
3E18
  8
BLACK
  6
CONTINUOUS
 10
24.123331
 20
-63.310698
 30
0.0
 11
23.794053
 21
-63.4867
 31
0.0
  0
LINE
  5
3E19
  8
BLACK
  6
CONTINUOUS
 10
23.794053
 20
-63.4867
 30
0.0
 11
23.483613
 21
-63.69412999999999
 31
0.0
  0
LINE
  5
3E1A
  8
BLACK
  6
CONTINUOUS
 10
23.483613
 20
-63.69412999999999
 30
0.0
 11
23.194998
 21
-63.93098999999999
 31
0.0
  0
LINE
  5
3E1B
  8
BLACK
  6
CONTINUOUS
 10
23.194998
 20
-63.93098999999999
 30
0.0
 11
22.93099
 21
-64.194998
 31
0.0
  0
LINE
  5
3E1C
  8
BLACK
  6
CONTINUOUS
 10
22.93099
 20
-64.194998
 30
0.0
 11
22.69413
 21
-64.48361299999999
 31
0.0
  0
LINE
  5
3E1D
  8
BLACK
  6
CONTINUOUS
 10
22.69413
 20
-64.48361299999999
 30
0.0
 11
22.4867
 21
-64.79405299999999
 31
0.0
  0
LINE
  5
3E1E
  8
BLACK
  6
CONTINUOUS
 10
22.4867
 20
-64.79405299999999
 30
0.0
 11
22.310698
 21
-65.123331
 31
0.0
  0
LINE
  5
3E1F
  8
BLACK
  6
CONTINUOUS
 10
22.310698
 20
-65.123331
 30
0.0
 11
22.167817
 21
-65.46827499999999
 31
0.0
  0
LINE
  5
3E20
  8
BLACK
  6
CONTINUOUS
 10
22.167817
 20
-65.46827499999999
 30
0.0
 11
22.059436
 21
-65.82556199999999
 31
0.0
  0
LINE
  5
3E21
  8
BLACK
  6
CONTINUOUS
 10
22.059436
 20
-65.82556199999999
 30
0.0
 11
21.986596
 21
-66.191752
 31
0.0
  0
LINE
  5
3E22
  8
BLACK
  6
CONTINUOUS
 10
21.986596
 20
-66.191752
 30
0.0
 11
21.95
 21
-66.563318
 31
0.0
  0
LINE
  5
3E23
  8
BLACK
  6
CONTINUOUS
 10
21.95
 20
-66.563318
 30
0.0
 11
21.95
 21
-66.75
 31
0.0
  0
LINE
  5
3E24
  8
BLACK
  6
CONTINUOUS
 10
21.95
 20
-66.75
 30
0.0
 11
21.95
 21
-151.5
 31
0.0
  0
LINE
  5
3E25
  8
BLACK
  6
CONTINUOUS
 10
21.95
 20
-151.5
 30
0.0
 11
21.95
 21
-151.686682
 31
0.0
  0
LINE
  5
3E26
  8
BLACK
  6
CONTINUOUS
 10
21.95
 20
-151.686682
 30
0.0
 11
21.986596
 21
-152.058248
 31
0.0
  0
LINE
  5
3E27
  8
BLACK
  6
CONTINUOUS
 10
21.986596
 20
-152.058248
 30
0.0
 11
22.059436
 21
-152.424438
 31
0.0
  0
LINE
  5
3E28
  8
BLACK
  6
CONTINUOUS
 10
22.059436
 20
-152.424438
 30
0.0
 11
22.167817
 21
-152.781725
 31
0.0
  0
LINE
  5
3E29
  8
BLACK
  6
CONTINUOUS
 10
22.167817
 20
-152.781725
 30
0.0
 11
22.310698
 21
-153.126669
 31
0.0
  0
LINE
  5
3E2A
  8
BLACK
  6
CONTINUOUS
 10
22.310698
 20
-153.126669
 30
0.0
 11
22.4867
 21
-153.455947
 31
0.0
  0
LINE
  5
3E2B
  8
BLACK
  6
CONTINUOUS
 10
22.4867
 20
-153.455947
 30
0.0
 11
22.69413
 21
-153.766387
 31
0.0
  0
LINE
  5
3E2C
  8
BLACK
  6
CONTINUOUS
 10
22.69413
 20
-153.766387
 30
0.0
 11
22.93099
 21
-154.055002
 31
0.0
  0
LINE
  5
3E2D
  8
BLACK
  6
CONTINUOUS
 10
22.93099
 20
-154.055002
 30
0.0
 11
23.194998
 21
-154.31901
 31
0.0
  0
LINE
  5
3E2E
  8
BLACK
  6
CONTINUOUS
 10
23.194998
 20
-154.31901
 30
0.0
 11
23.483613
 21
-154.55587
 31
0.0
  0
LINE
  5
3E2F
  8
BLACK
  6
CONTINUOUS
 10
23.483613
 20
-154.55587
 30
0.0
 11
23.794053
 21
-154.7633
 31
0.0
  0
LINE
  5
3E30
  8
BLACK
  6
CONTINUOUS
 10
23.794053
 20
-154.7633
 30
0.0
 11
24.123331
 21
-154.939302
 31
0.0
  0
LINE
  5
3E31
  8
BLACK
  6
CONTINUOUS
 10
24.123331
 20
-154.939302
 30
0.0
 11
24.468275
 21
-155.082183
 31
0.0
  0
LINE
  5
3E32
  8
BLACK
  6
CONTINUOUS
 10
24.468275
 20
-155.082183
 30
0.0
 11
24.825562
 21
-155.190564
 31
0.0
  0
LINE
  5
3E33
  8
BLACK
  6
CONTINUOUS
 10
24.825562
 20
-155.190564
 30
0.0
 11
25.191752
 21
-155.263404
 31
0.0
  0
LINE
  5
3E34
  8
BLACK
  6
CONTINUOUS
 10
25.191752
 20
-155.263404
 30
0.0
 11
25.563318
 21
-155.3
 31
0.0
  0
LINE
  5
3E35
  8
BLACK
  6
CONTINUOUS
 10
25.563318
 20
-155.3
 30
0.0
 11
25.75
 21
-155.3
 31
0.0
  0
LINE
  5
3E36
  8
BLACK
  6
CONTINUOUS
 10
25.75
 20
-155.3
 30
0.0
 11
175.75
 21
-155.3
 31
0.0
  0
LINE
  5
3E37
  8
BLACK
  6
CONTINUOUS
 10
175.75
 20
-155.3
 30
0.0
 11
175.936682
 21
-155.3
 31
0.0
  0
LINE
  5
3E38
  8
BLACK
  6
CONTINUOUS
 10
175.936682
 20
-155.3
 30
0.0
 11
176.308248
 21
-155.263404
 31
0.0
  0
LINE
  5
3E39
  8
BLACK
  6
CONTINUOUS
 10
176.308248
 20
-155.263404
 30
0.0
 11
176.674438
 21
-155.190564
 31
0.0
  0
LINE
  5
3E3A
  8
BLACK
  6
CONTINUOUS
 10
176.674438
 20
-155.190564
 30
0.0
 11
177.031725
 21
-155.082183
 31
0.0
  0
LINE
  5
3E3B
  8
BLACK
  6
CONTINUOUS
 10
177.031725
 20
-155.082183
 30
0.0
 11
177.376669
 21
-154.939302
 31
0.0
  0
LINE
  5
3E3C
  8
BLACK
  6
CONTINUOUS
 10
177.376669
 20
-154.939302
 30
0.0
 11
177.705947
 21
-154.7633
 31
0.0
  0
LINE
  5
3E3D
  8
BLACK
  6
CONTINUOUS
 10
177.705947
 20
-154.7633
 30
0.0
 11
178.016387
 21
-154.55587
 31
0.0
  0
LINE
  5
3E3E
  8
BLACK
  6
CONTINUOUS
 10
178.016387
 20
-154.55587
 30
0.0
 11
178.305002
 21
-154.31901
 31
0.0
  0
LINE
  5
3E3F
  8
BLACK
  6
CONTINUOUS
 10
178.305002
 20
-154.31901
 30
0.0
 11
178.56901
 21
-154.055002
 31
0.0
  0
LINE
  5
3E40
  8
BLACK
  6
CONTINUOUS
 10
178.56901
 20
-154.055002
 30
0.0
 11
178.80587
 21
-153.766387
 31
0.0
  0
LINE
  5
3E41
  8
BLACK
  6
CONTINUOUS
 10
178.80587
 20
-153.766387
 30
0.0
 11
179.0133
 21
-153.455947
 31
0.0
  0
LINE
  5
3E42
  8
BLACK
  6
CONTINUOUS
 10
179.0133
 20
-153.455947
 30
0.0
 11
179.189302
 21
-153.126669
 31
0.0
  0
LINE
  5
3E43
  8
BLACK
  6
CONTINUOUS
 10
179.189302
 20
-153.126669
 30
0.0
 11
179.332183
 21
-152.781725
 31
0.0
  0
LINE
  5
3E44
  8
BLACK
  6
CONTINUOUS
 10
179.332183
 20
-152.781725
 30
0.0
 11
179.440564
 21
-152.424438
 31
0.0
  0
LINE
  5
3E45
  8
BLACK
  6
CONTINUOUS
 10
179.440564
 20
-152.424438
 30
0.0
 11
179.513404
 21
-152.058248
 31
0.0
  0
LINE
  5
3E46
  8
BLACK
  6
CONTINUOUS
 10
179.513404
 20
-152.058248
 30
0.0
 11
179.55
 21
-151.686682
 31
0.0
  0
LINE
  5
3E47
  8
BLACK
  6
CONTINUOUS
 10
179.55
 20
-151.686682
 30
0.0
 11
179.55
 21
-151.5
 31
0.0
  0
LINE
  5
3E48
  8
BLACK
  6
CONTINUOUS
 10
179.55
 20
-151.5
 30
0.0
 11
179.55
 21
-66.75
 31
0.0
  0
LINE
  5
3E49
  8
BLACK
  6
CONTINUOUS
 10
179.55
 20
-66.75
 30
0.0
 11
179.55
 21
-66.563318
 31
0.0
  0
LINE
  5
3E4A
  8
BLACK
  6
CONTINUOUS
 10
179.55
 20
-66.563318
 30
0.0
 11
179.513404
 21
-66.191752
 31
0.0
  0
LINE
  5
3E4B
  8
BLACK
  6
CONTINUOUS
 10
179.513404
 20
-66.191752
 30
0.0
 11
179.440564
 21
-65.82556199999999
 31
0.0
  0
LINE
  5
3E4C
  8
BLACK
  6
CONTINUOUS
 10
179.440564
 20
-65.82556199999999
 30
0.0
 11
179.332183
 21
-65.46827499999999
 31
0.0
  0
LINE
  5
3E4D
  8
BLACK
  6
CONTINUOUS
 10
179.332183
 20
-65.46827499999999
 30
0.0
 11
179.189302
 21
-65.123331
 31
0.0
  0
LINE
  5
3E4E
  8
BLACK
  6
CONTINUOUS
 10
179.189302
 20
-65.123331
 30
0.0
 11
179.0133
 21
-64.79405299999999
 31
0.0
  0
LINE
  5
3E4F
  8
BLACK
  6
CONTINUOUS
 10
179.0133
 20
-64.79405299999999
 30
0.0
 11
178.80587
 21
-64.48361299999999
 31
0.0
  0
LINE
  5
3E50
  8
BLACK
  6
CONTINUOUS
 10
178.80587
 20
-64.48361299999999
 30
0.0
 11
178.56901
 21
-64.194998
 31
0.0
  0
LINE
  5
3E51
  8
BLACK
  6
CONTINUOUS
 10
178.56901
 20
-64.194998
 30
0.0
 11
178.305002
 21
-63.93098999999999
 31
0.0
  0
LINE
  5
3E52
  8
BLACK
  6
CONTINUOUS
 10
178.305002
 20
-63.93098999999999
 30
0.0
 11
178.016387
 21
-63.69412999999999
 31
0.0
  0
LINE
  5
3E53
  8
BLACK
  6
CONTINUOUS
 10
178.016387
 20
-63.69412999999999
 30
0.0
 11
177.705947
 21
-63.4867
 31
0.0
  0
LINE
  5
3E54
  8
BLACK
  6
CONTINUOUS
 10
177.705947
 20
-63.4867
 30
0.0
 11
177.376669
 21
-63.310698
 31
0.0
  0
LINE
  5
3E55
  8
BLACK
  6
CONTINUOUS
 10
177.376669
 20
-63.310698
 30
0.0
 11
177.031725
 21
-63.167817
 31
0.0
  0
LINE
  5
3E56
  8
BLACK
  6
CONTINUOUS
 10
177.031725
 20
-63.167817
 30
0.0
 11
176.674438
 21
-63.059436
 31
0.0
  0
LINE
  5
3E57
  8
BLACK
  6
CONTINUOUS
 10
176.674438
 20
-63.059436
 30
0.0
 11
176.308248
 21
-62.986596
 31
0.0
  0
LINE
  5
3E58
  8
BLACK
  6
CONTINUOUS
 10
176.308248
 20
-62.986596
 30
0.0
 11
175.936682
 21
-62.95
 31
0.0
  0
LINE
  5
3E59
  8
BLACK
  6
CONTINUOUS
 10
175.936682
 20
-62.95
 30
0.0
 11
175.75
 21
-62.95
 31
0.0
  0
LINE
  5
3E5A
  8
BLACK
  6
CONTINUOUS
 10
175.75
 20
-62.95
 30
0.0
 11
25.75
 21
-62.95
 31
0.0
  0
VIEWPORT
  5
3F25
 67
     1
  8
0
 10
128.5
 20
97.5
 30
0.0
 40
314.226
 41
222.18
 68
     1
 69
     1
1001
ACAD
1000
MVIEW
1002
{
1070
    16
1010
0.0
1020
0.0
1030
0.0
1010
0.0
1020
0.0
1030
1.0
1040
0.0
1040
222.18
1040
128.5
1040
97.5
1040
50.0
1040
0.0
1040
0.0
1070
     0
1070
   100
1070
     0
1070
     3
1070
     0
1070
     0
1070
     0
1070
     0
1040
0.0
1040
0.0
1040
0.0
1040
10.0
1040
10.0
1040
10.0
1040
10.0
1070
     0
1002
{
1002
}
1002
}
  0
ENDSEC
  0
EOF
