<?xml version="1.0" encoding="UTF-8"?>
<!-- Mon Feb 5 11:13:37 2024 Generated by QCAD 3.28.2.4 SVG Exporter -->
<svg width="6.2362" height="3.6673" viewBox="0.8484 2.4626 6.2362 3.6673" version="1.1" xmlns="http://www.w3.org/2000/svg" style="stroke-linecap:round;stroke-linejoin:round;fill:none">
    <g transform="scale(1,-1)">
        <!-- Line -->
        <path d="M6.9193,-2.4626 L6.9345,-2.4633 " style="stroke:#000000;stroke-width:0;"/>
        <!-- Line -->
        <path d="M6.9345,-2.4633 L6.9497,-2.4654 " style="stroke:#000000;stroke-width:0;"/>
        <!-- Line -->
        <path d="M6.9497,-2.4654 L6.9645,-2.4689 " style="stroke:#000000;stroke-width:0;"/>
        <!-- Line -->
        <path d="M6.9645,-2.4689 L6.979,-2.4738 " style="stroke:#000000;stroke-width:0;"/>
        <!-- Line -->
        <path d="M6.979,-2.4738 L6.993,-2.4799 " style="stroke:#000000;stroke-width:0;"/>
        <!-- Line -->
        <path d="M6.993,-2.4799 L7.0063,-2.4874 " style="stroke:#000000;stroke-width:0;"/>
        <!-- Line -->
        <path d="M7.0063,-2.4874 L7.0189,-2.496 " style="stroke:#000000;stroke-width:0;"/>
        <!-- Line -->
        <path d="M7.0189,-2.496 L7.0307,-2.5058 " style="stroke:#000000;stroke-width:0;"/>
        <!-- Line -->
        <path d="M7.0307,-2.5058 L7.0415,-2.5166 " style="stroke:#000000;stroke-width:0;"/>
        <!-- Line -->
        <path d="M7.0415,-2.5166 L7.0512,-2.5283 " style="stroke:#000000;stroke-width:0;"/>
        <!-- Line -->
        <path d="M7.0512,-2.5283 L7.0599,-2.5409 " style="stroke:#000000;stroke-width:0;"/>
        <!-- Line -->
        <path d="M7.0599,-2.5409 L7.0673,-2.5542 " style="stroke:#000000;stroke-width:0;"/>
        <!-- Line -->
        <path d="M7.0673,-2.5542 L7.0735,-2.5682 " style="stroke:#000000;stroke-width:0;"/>
        <!-- Line -->
        <path d="M7.0735,-2.5682 L7.0783,-2.5827 " style="stroke:#000000;stroke-width:0;"/>
        <!-- Line -->
        <path d="M7.0783,-2.5827 L7.0818,-2.5976 " style="stroke:#000000;stroke-width:0;"/>
        <!-- Line -->
        <path d="M7.0818,-2.5976 L7.0839,-2.6127 " style="stroke:#000000;stroke-width:0;"/>
        <!-- Line -->
        <path d="M7.0839,-2.6127 L7.0846,-2.628 " style="stroke:#000000;stroke-width:0;"/>
        <!-- Line -->
        <path d="M7.0846,-2.628 L7.0846,-5.9646 " style="stroke:#000000;stroke-width:0;"/>
        <!-- Line -->
        <path d="M7.0846,-5.9646 L7.0839,-5.9798 " style="stroke:#000000;stroke-width:0;"/>
        <!-- Line -->
        <path d="M7.0839,-5.9798 L7.0818,-5.995 " style="stroke:#000000;stroke-width:0;"/>
        <!-- Line -->
        <path d="M7.0818,-5.995 L7.0783,-6.0098 " style="stroke:#000000;stroke-width:0;"/>
        <!-- Line -->
        <path d="M7.0783,-6.0098 L7.0735,-6.0243 " style="stroke:#000000;stroke-width:0;"/>
        <!-- Line -->
        <path d="M7.0735,-6.0243 L7.0673,-6.0383 " style="stroke:#000000;stroke-width:0;"/>
        <!-- Line -->
        <path d="M7.0673,-6.0383 L7.0599,-6.0516 " style="stroke:#000000;stroke-width:0;"/>
        <!-- Line -->
        <path d="M7.0599,-6.0516 L7.0512,-6.0642 " style="stroke:#000000;stroke-width:0;"/>
        <!-- Line -->
        <path d="M7.0512,-6.0642 L7.0415,-6.076 " style="stroke:#000000;stroke-width:0;"/>
        <!-- Line -->
        <path d="M7.0415,-6.076 L7.0307,-6.0868 " style="stroke:#000000;stroke-width:0;"/>
        <!-- Line -->
        <path d="M7.0307,-6.0868 L7.0189,-6.0965 " style="stroke:#000000;stroke-width:0;"/>
        <!-- Line -->
        <path d="M7.0189,-6.0965 L7.0063,-6.1052 " style="stroke:#000000;stroke-width:0;"/>
        <!-- Line -->
        <path d="M7.0063,-6.1052 L6.993,-6.1126 " style="stroke:#000000;stroke-width:0;"/>
        <!-- Line -->
        <path d="M6.993,-6.1126 L6.979,-6.1188 " style="stroke:#000000;stroke-width:0;"/>
        <!-- Line -->
        <path d="M6.979,-6.1188 L6.9645,-6.1236 " style="stroke:#000000;stroke-width:0;"/>
        <!-- Line -->
        <path d="M6.9645,-6.1236 L6.9497,-6.1271 " style="stroke:#000000;stroke-width:0;"/>
        <!-- Line -->
        <path d="M6.9497,-6.1271 L6.9345,-6.1292 " style="stroke:#000000;stroke-width:0;"/>
        <!-- Line -->
        <path d="M6.9345,-6.1292 L6.9193,-6.1299 " style="stroke:#000000;stroke-width:0;"/>
        <!-- Line -->
        <path d="M6.9193,-6.1299 L1.0138,-6.1299 " style="stroke:#000000;stroke-width:0;"/>
        <!-- Line -->
        <path d="M1.0138,-6.1299 L0.9985,-6.1292 " style="stroke:#000000;stroke-width:0;"/>
        <!-- Line -->
        <path d="M0.9985,-6.1292 L0.9834,-6.1271 " style="stroke:#000000;stroke-width:0;"/>
        <!-- Line -->
        <path d="M0.9834,-6.1271 L0.9685,-6.1236 " style="stroke:#000000;stroke-width:0;"/>
        <!-- Line -->
        <path d="M0.9685,-6.1236 L0.954,-6.1188 " style="stroke:#000000;stroke-width:0;"/>
        <!-- Line -->
        <path d="M0.954,-6.1188 L0.9401,-6.1126 " style="stroke:#000000;stroke-width:0;"/>
        <!-- Line -->
        <path d="M0.9401,-6.1126 L0.9267,-6.1052 " style="stroke:#000000;stroke-width:0;"/>
        <!-- Line -->
        <path d="M0.9267,-6.1052 L0.9141,-6.0965 " style="stroke:#000000;stroke-width:0;"/>
        <!-- Line -->
        <path d="M0.9141,-6.0965 L0.9024,-6.0868 " style="stroke:#000000;stroke-width:0;"/>
        <!-- Line -->
        <path d="M0.9024,-6.0868 L0.8916,-6.076 " style="stroke:#000000;stroke-width:0;"/>
        <!-- Line -->
        <path d="M0.8916,-6.076 L0.8818,-6.0642 " style="stroke:#000000;stroke-width:0;"/>
        <!-- Line -->
        <path d="M0.8818,-6.0642 L0.8732,-6.0516 " style="stroke:#000000;stroke-width:0;"/>
        <!-- Line -->
        <path d="M0.8732,-6.0516 L0.8658,-6.0383 " style="stroke:#000000;stroke-width:0;"/>
        <!-- Line -->
        <path d="M0.8658,-6.0383 L0.8596,-6.0243 " style="stroke:#000000;stroke-width:0;"/>
        <!-- Line -->
        <path d="M0.8596,-6.0243 L0.8547,-6.0098 " style="stroke:#000000;stroke-width:0;"/>
        <!-- Line -->
        <path d="M0.8547,-6.0098 L0.8512,-5.995 " style="stroke:#000000;stroke-width:0;"/>
        <!-- Line -->
        <path d="M0.8512,-5.995 L0.8491,-5.9798 " style="stroke:#000000;stroke-width:0;"/>
        <!-- Line -->
        <path d="M0.8491,-5.9798 L0.8484,-5.9646 " style="stroke:#000000;stroke-width:0;"/>
        <!-- Line -->
        <path d="M0.8484,-5.9646 L0.8484,-2.628 " style="stroke:#000000;stroke-width:0;"/>
        <!-- Line -->
        <path d="M0.8484,-2.628 L0.8491,-2.6127 " style="stroke:#000000;stroke-width:0;"/>
        <!-- Line -->
        <path d="M0.8491,-2.6127 L0.8512,-2.5976 " style="stroke:#000000;stroke-width:0;"/>
        <!-- Line -->
        <path d="M0.8512,-2.5976 L0.8547,-2.5827 " style="stroke:#000000;stroke-width:0;"/>
        <!-- Line -->
        <path d="M0.8547,-2.5827 L0.8596,-2.5682 " style="stroke:#000000;stroke-width:0;"/>
        <!-- Line -->
        <path d="M0.8596,-2.5682 L0.8658,-2.5542 " style="stroke:#000000;stroke-width:0;"/>
        <!-- Line -->
        <path d="M0.8658,-2.5542 L0.8732,-2.5409 " style="stroke:#000000;stroke-width:0;"/>
        <!-- Line -->
        <path d="M0.8732,-2.5409 L0.8818,-2.5283 " style="stroke:#000000;stroke-width:0;"/>
        <!-- Line -->
        <path d="M0.8818,-2.5283 L0.8916,-2.5166 " style="stroke:#000000;stroke-width:0;"/>
        <!-- Line -->
        <path d="M0.8916,-2.5166 L0.9024,-2.5058 " style="stroke:#000000;stroke-width:0;"/>
        <!-- Line -->
        <path d="M0.9024,-2.5058 L0.9141,-2.496 " style="stroke:#000000;stroke-width:0;"/>
        <!-- Line -->
        <path d="M0.9141,-2.496 L0.9267,-2.4874 " style="stroke:#000000;stroke-width:0;"/>
        <!-- Line -->
        <path d="M0.9267,-2.4874 L0.9401,-2.4799 " style="stroke:#000000;stroke-width:0;"/>
        <!-- Line -->
        <path d="M0.9401,-2.4799 L0.954,-2.4738 " style="stroke:#000000;stroke-width:0;"/>
        <!-- Line -->
        <path d="M0.954,-2.4738 L0.9685,-2.4689 " style="stroke:#000000;stroke-width:0;"/>
        <!-- Line -->
        <path d="M0.9685,-2.4689 L0.9834,-2.4654 " style="stroke:#000000;stroke-width:0;"/>
        <!-- Line -->
        <path d="M0.9834,-2.4654 L0.9985,-2.4633 " style="stroke:#000000;stroke-width:0;"/>
        <!-- Line -->
        <path d="M0.9985,-2.4633 L1.0138,-2.4626 " style="stroke:#000000;stroke-width:0;"/>
        <!-- Line -->
        <path d="M1.0138,-2.4626 L6.9193,-2.4626 " style="stroke:#000000;stroke-width:0;"/>
        <!-- Line -->
        <path d="M1.0138,-2.4783 L1.0064,-2.4783 " style="stroke:#000000;stroke-width:0;"/>
        <!-- Line -->
        <path d="M1.0064,-2.4783 L0.9918,-2.4798 " style="stroke:#000000;stroke-width:0;"/>
        <!-- Line -->
        <path d="M0.9918,-2.4798 L0.9774,-2.4827 " style="stroke:#000000;stroke-width:0;"/>
        <!-- Line -->
        <path d="M0.9774,-2.4827 L0.9633,-2.4869 " style="stroke:#000000;stroke-width:0;"/>
        <!-- Line -->
        <path d="M0.9633,-2.4869 L0.9497,-2.4925 " style="stroke:#000000;stroke-width:0;"/>
        <!-- Line -->
        <path d="M0.9497,-2.4925 L0.9368,-2.4995 " style="stroke:#000000;stroke-width:0;"/>
        <!-- Line -->
        <path d="M0.9368,-2.4995 L0.9246,-2.5076 " style="stroke:#000000;stroke-width:0;"/>
        <!-- Line -->
        <path d="M0.9246,-2.5076 L0.9132,-2.517 " style="stroke:#000000;stroke-width:0;"/>
        <!-- Line -->
        <path d="M0.9132,-2.517 L0.9028,-2.5274 " style="stroke:#000000;stroke-width:0;"/>
        <!-- Line -->
        <path d="M0.9028,-2.5274 L0.8935,-2.5387 " style="stroke:#000000;stroke-width:0;"/>
        <!-- Line -->
        <path d="M0.8935,-2.5387 L0.8853,-2.5509 " style="stroke:#000000;stroke-width:0;"/>
        <!-- Line -->
        <path d="M0.8853,-2.5509 L0.8784,-2.5639 " style="stroke:#000000;stroke-width:0;"/>
        <!-- Line -->
        <path d="M0.8784,-2.5639 L0.8727,-2.5775 " style="stroke:#000000;stroke-width:0;"/>
        <!-- Line -->
        <path d="M0.8727,-2.5775 L0.8685,-2.5916 " style="stroke:#000000;stroke-width:0;"/>
        <!-- Line -->
        <path d="M0.8685,-2.5916 L0.8656,-2.606 " style="stroke:#000000;stroke-width:0;"/>
        <!-- Line -->
        <path d="M0.8656,-2.606 L0.8642,-2.6206 " style="stroke:#000000;stroke-width:0;"/>
        <!-- Line -->
        <path d="M0.8642,-2.6206 L0.8642,-2.628 " style="stroke:#000000;stroke-width:0;"/>
        <!-- Line -->
        <path d="M0.8642,-2.628 L0.8642,-5.9646 " style="stroke:#000000;stroke-width:0;"/>
        <!-- Line -->
        <path d="M0.8642,-5.9646 L0.8642,-5.9719 " style="stroke:#000000;stroke-width:0;"/>
        <!-- Line -->
        <path d="M0.8642,-5.9719 L0.8656,-5.9865 " style="stroke:#000000;stroke-width:0;"/>
        <!-- Line -->
        <path d="M0.8656,-5.9865 L0.8685,-6.001 " style="stroke:#000000;stroke-width:0;"/>
        <!-- Line -->
        <path d="M0.8685,-6.001 L0.8727,-6.015 " style="stroke:#000000;stroke-width:0;"/>
        <!-- Line -->
        <path d="M0.8727,-6.015 L0.8784,-6.0286 " style="stroke:#000000;stroke-width:0;"/>
        <!-- Line -->
        <path d="M0.8784,-6.0286 L0.8853,-6.0416 " style="stroke:#000000;stroke-width:0;"/>
        <!-- Line -->
        <path d="M0.8853,-6.0416 L0.8935,-6.0538 " style="stroke:#000000;stroke-width:0;"/>
        <!-- Line -->
        <path d="M0.8935,-6.0538 L0.9028,-6.0652 " style="stroke:#000000;stroke-width:0;"/>
        <!-- Line -->
        <path d="M0.9028,-6.0652 L0.9132,-6.0756 " style="stroke:#000000;stroke-width:0;"/>
        <!-- Line -->
        <path d="M0.9132,-6.0756 L0.9246,-6.0849 " style="stroke:#000000;stroke-width:0;"/>
        <!-- Line -->
        <path d="M0.9246,-6.0849 L0.9368,-6.093 " style="stroke:#000000;stroke-width:0;"/>
        <!-- Line -->
        <path d="M0.9368,-6.093 L0.9497,-6.1 " style="stroke:#000000;stroke-width:0;"/>
        <!-- Line -->
        <path d="M0.9497,-6.1 L0.9633,-6.1056 " style="stroke:#000000;stroke-width:0;"/>
        <!-- Line -->
        <path d="M0.9633,-6.1056 L0.9774,-6.1099 " style="stroke:#000000;stroke-width:0;"/>
        <!-- Line -->
        <path d="M0.9774,-6.1099 L0.9918,-6.1127 " style="stroke:#000000;stroke-width:0;"/>
        <!-- Line -->
        <path d="M0.9918,-6.1127 L1.0064,-6.1142 " style="stroke:#000000;stroke-width:0;"/>
        <!-- Line -->
        <path d="M1.0064,-6.1142 L1.0138,-6.1142 " style="stroke:#000000;stroke-width:0;"/>
        <!-- Line -->
        <path d="M1.0138,-6.1142 L6.9193,-6.1142 " style="stroke:#000000;stroke-width:0;"/>
        <!-- Line -->
        <path d="M6.9193,-6.1142 L6.9266,-6.1142 " style="stroke:#000000;stroke-width:0;"/>
        <!-- Line -->
        <path d="M6.9266,-6.1142 L6.9413,-6.1127 " style="stroke:#000000;stroke-width:0;"/>
        <!-- Line -->
        <path d="M6.9413,-6.1127 L6.9557,-6.1099 " style="stroke:#000000;stroke-width:0;"/>
        <!-- Line -->
        <path d="M6.9557,-6.1099 L6.9698,-6.1056 " style="stroke:#000000;stroke-width:0;"/>
        <!-- Line -->
        <path d="M6.9698,-6.1056 L6.9833,-6.1 " style="stroke:#000000;stroke-width:0;"/>
        <!-- Line -->
        <path d="M6.9833,-6.1 L6.9963,-6.093 " style="stroke:#000000;stroke-width:0;"/>
        <!-- Line -->
        <path d="M6.9963,-6.093 L7.0085,-6.0849 " style="stroke:#000000;stroke-width:0;"/>
        <!-- Line -->
        <path d="M7.0085,-6.0849 L7.0199,-6.0756 " style="stroke:#000000;stroke-width:0;"/>
        <!-- Line -->
        <path d="M7.0199,-6.0756 L7.0303,-6.0652 " style="stroke:#000000;stroke-width:0;"/>
        <!-- Line -->
        <path d="M7.0303,-6.0652 L7.0396,-6.0538 " style="stroke:#000000;stroke-width:0;"/>
        <!-- Line -->
        <path d="M7.0396,-6.0538 L7.0478,-6.0416 " style="stroke:#000000;stroke-width:0;"/>
        <!-- Line -->
        <path d="M7.0478,-6.0416 L7.0547,-6.0286 " style="stroke:#000000;stroke-width:0;"/>
        <!-- Line -->
        <path d="M7.0547,-6.0286 L7.0603,-6.015 " style="stroke:#000000;stroke-width:0;"/>
        <!-- Line -->
        <path d="M7.0603,-6.015 L7.0646,-6.001 " style="stroke:#000000;stroke-width:0;"/>
        <!-- Line -->
        <path d="M7.0646,-6.001 L7.0675,-5.9865 " style="stroke:#000000;stroke-width:0;"/>
        <!-- Line -->
        <path d="M7.0675,-5.9865 L7.0689,-5.9719 " style="stroke:#000000;stroke-width:0;"/>
        <!-- Line -->
        <path d="M7.0689,-5.9719 L7.0689,-5.9646 " style="stroke:#000000;stroke-width:0;"/>
        <!-- Line -->
        <path d="M7.0689,-5.9646 L7.0689,-2.628 " style="stroke:#000000;stroke-width:0;"/>
        <!-- Line -->
        <path d="M7.0689,-2.628 L7.0689,-2.6206 " style="stroke:#000000;stroke-width:0;"/>
        <!-- Line -->
        <path d="M7.0689,-2.6206 L7.0675,-2.606 " style="stroke:#000000;stroke-width:0;"/>
        <!-- Line -->
        <path d="M7.0675,-2.606 L7.0646,-2.5916 " style="stroke:#000000;stroke-width:0;"/>
        <!-- Line -->
        <path d="M7.0646,-2.5916 L7.0603,-2.5775 " style="stroke:#000000;stroke-width:0;"/>
        <!-- Line -->
        <path d="M7.0603,-2.5775 L7.0547,-2.5639 " style="stroke:#000000;stroke-width:0;"/>
        <!-- Line -->
        <path d="M7.0547,-2.5639 L7.0478,-2.5509 " style="stroke:#000000;stroke-width:0;"/>
        <!-- Line -->
        <path d="M7.0478,-2.5509 L7.0396,-2.5387 " style="stroke:#000000;stroke-width:0;"/>
        <!-- Line -->
        <path d="M7.0396,-2.5387 L7.0303,-2.5274 " style="stroke:#000000;stroke-width:0;"/>
        <!-- Line -->
        <path d="M7.0303,-2.5274 L7.0199,-2.517 " style="stroke:#000000;stroke-width:0;"/>
        <!-- Line -->
        <path d="M7.0199,-2.517 L7.0085,-2.5076 " style="stroke:#000000;stroke-width:0;"/>
        <!-- Line -->
        <path d="M7.0085,-2.5076 L6.9963,-2.4995 " style="stroke:#000000;stroke-width:0;"/>
        <!-- Line -->
        <path d="M6.9963,-2.4995 L6.9833,-2.4925 " style="stroke:#000000;stroke-width:0;"/>
        <!-- Line -->
        <path d="M6.9833,-2.4925 L6.9698,-2.4869 " style="stroke:#000000;stroke-width:0;"/>
        <!-- Line -->
        <path d="M6.9698,-2.4869 L6.9557,-2.4827 " style="stroke:#000000;stroke-width:0;"/>
        <!-- Line -->
        <path d="M6.9557,-2.4827 L6.9413,-2.4798 " style="stroke:#000000;stroke-width:0;"/>
        <!-- Line -->
        <path d="M6.9413,-2.4798 L6.9266,-2.4783 " style="stroke:#000000;stroke-width:0;"/>
        <!-- Line -->
        <path d="M6.9266,-2.4783 L6.9193,-2.4783 " style="stroke:#000000;stroke-width:0;"/>
        <!-- Line -->
        <path d="M6.9193,-2.4783 L1.0138,-2.4783 " style="stroke:#000000;stroke-width:0;"/>
    </g>
</svg>
