<?xml version="1.0" encoding="UTF-8"?>
<!-- Thu Feb 8 20:24:47 2024 Generated by QCAD 3.28.2.4 SVG Exporter -->
<svg width="157.6mm" height="92.35mm" viewBox="21.95 62.95 157.6 92.35" version="1.1" xmlns="http://www.w3.org/2000/svg" style="stroke-linecap:round;stroke-linejoin:round;fill:none">
    <g transform="scale(1,-1)">
        <!-- Polyline -->
        <path d="M25.75,-62.95 L25.5633,-62.95 L25.1918,-62.9866 L24.8256,-63.0594 L24.4683,-63.1678 L24.1233,-63.3107 L23.7941,-63.4867 L23.4836,-63.6941 L23.195,-63.931 L22.931,-64.195 L22.6941,-64.4836 L22.4867,-64.7941 L22.3107,-65.1233 L22.1678,-65.4683 L22.0594,-65.8256 L21.9866,-66.1918 L21.95,-66.5633 L21.95,-66.75 L21.95,-151.5 L21.95,-151.6867 L21.9866,-152.0582 L22.0594,-152.4244 L22.1678,-152.7817 L22.3107,-153.1267 L22.4867,-153.4559 L22.6941,-153.7664 L22.931,-154.055 L23.195,-154.319 L23.4836,-154.5559 L23.7941,-154.7633 L24.1233,-154.9393 L24.4683,-155.0822 L24.8256,-155.1906 L25.1918,-155.2634 L25.5633,-155.3 L25.75,-155.3 L175.75,-155.3 L175.9367,-155.3 L176.3082,-155.2634 L176.6744,-155.1906 L177.0317,-155.0822 L177.3767,-154.9393 L177.7059,-154.7633 L178.0164,-154.5559 L178.305,-154.319 L178.569,-154.055 L178.8059,-153.7664 L179.0133,-153.4559 L179.1893,-153.1267 L179.3322,-152.7817 L179.4406,-152.4244 L179.5134,-152.0582 L179.55,-151.6867 L179.55,-151.5 L179.55,-66.75 L179.55,-66.5633 L179.5134,-66.1918 L179.4406,-65.8256 L179.3322,-65.4683 L179.1893,-65.1233 L179.0133,-64.7941 L178.8059,-64.4836 L178.569,-64.195 L178.305,-63.931 L178.0164,-63.6941 L177.7059,-63.4867 L177.3767,-63.3107 L177.0317,-63.1678 L176.6744,-63.0594 L176.3082,-62.9866 L175.9367,-62.95 L175.75,-62.95 Z" style="stroke:#000000;stroke-width:0;"/>
    </g>
</svg>
